# Blender3D v249 OBJ File: 
# www.blender3d.org
mtllib bigcylinder.mtl
v 0.707107 0.707107 -1.000000
v 0.773010 0.634393 -1.000000
v 0.831470 0.555570 -1.000000
v 0.881921 0.471397 -1.000000
v 0.923880 0.382683 -1.000000
v 0.956940 0.290285 -1.000000
v 0.980785 0.195090 -1.000000
v 0.995185 0.098017 -1.000000
v 1.000000 -0.000000 -1.000000
v 0.995185 -0.098017 -1.000000
v 0.980785 -0.195091 -1.000000
v 0.956940 -0.290285 -1.000000
v 0.923879 -0.382684 -1.000000
v 0.881921 -0.471397 -1.000000
v 0.831469 -0.555571 -1.000000
v 0.773010 -0.634394 -1.000000
v 0.707106 -0.707107 -1.000000
v 0.634393 -0.773011 -1.000000
v 0.555570 -0.831470 -1.000000
v 0.471396 -0.881922 -1.000000
v 0.382683 -0.923880 -1.000000
v 0.290284 -0.956941 -1.000000
v 0.195090 -0.980785 -1.000000
v 0.098016 -0.995185 -1.000000
v -0.000001 -1.000000 -1.000000
v -0.098018 -0.995185 -1.000000
v -0.195091 -0.980785 -1.000000
v -0.290286 -0.956940 -1.000000
v -0.382684 -0.923879 -1.000000
v -0.471398 -0.881921 -1.000000
v -0.555571 -0.831469 -1.000000
v -0.634394 -0.773010 -1.000000
v -0.707108 -0.707106 -1.000000
v -0.773011 -0.634393 -1.000000
v -0.831470 -0.555570 -1.000000
v -0.881922 -0.471396 -1.000000
v -0.923880 -0.382683 -1.000000
v -0.956940 -0.290285 -1.000000
v -0.980785 -0.195090 -1.000000
v -0.995185 -0.098017 -1.000000
v -1.000000 -0.000000 -1.000000
v -0.995185 0.098016 -1.000000
v -0.980785 0.195089 -1.000000
v -0.956941 0.290284 -1.000000
v -0.923880 0.382682 -1.000000
v -0.881922 0.471395 -1.000000
v -0.831471 0.555569 -1.000000
v -0.773012 0.634392 -1.000000
v -0.707108 0.707105 -1.000000
v -0.634395 0.773009 -1.000000
v -0.555572 0.831468 -1.000000
v -0.471399 0.881920 -1.000000
v -0.382686 0.923878 -1.000000
v -0.290288 0.956939 -1.000000
v -0.195093 0.980785 -1.000000
v -0.098021 0.995184 -1.000000
v -0.000004 1.000000 -1.000000
v 0.098013 0.995185 -1.000000
v 0.195086 0.980786 -1.000000
v 0.290281 0.956942 -1.000000
v 0.382679 0.923881 -1.000000
v 0.471393 0.881923 -1.000000
v 0.555566 0.831472 -1.000000
v 0.634389 0.773014 -1.000000
v 0.707103 0.707110 1.000000
v 0.773007 0.634398 1.000000
v 0.831466 0.555575 1.000000
v 0.881918 0.471402 1.000000
v 0.923877 0.382689 1.000000
v 0.956939 0.290291 1.000000
v 0.980784 0.195097 1.000000
v 0.995184 0.098024 1.000000
v 1.000000 0.000007 1.000000
v 0.995185 -0.098010 1.000000
v 0.980787 -0.195084 1.000000
v 0.956942 -0.290278 1.000000
v 0.923882 -0.382678 1.000000
v 0.881924 -0.471392 1.000000
v 0.831473 -0.555566 1.000000
v 0.773014 -0.634389 1.000000
v 0.707110 -0.707103 1.000000
v 0.634397 -0.773007 1.000000
v 0.555574 -0.831467 1.000000
v 0.471400 -0.881919 1.000000
v 0.382687 -0.923878 1.000000
v 0.290288 -0.956939 1.000000
v 0.195094 -0.980785 1.000000
v 0.098020 -0.995184 1.000000
v 0.000003 -1.000000 1.000000
v -0.098015 -0.995185 1.000000
v -0.195088 -0.980786 1.000000
v -0.290283 -0.956941 1.000000
v -0.382682 -0.923880 1.000000
v -0.471395 -0.881922 1.000000
v -0.555569 -0.831470 1.000000
v -0.634393 -0.773011 1.000000
v -0.707106 -0.707107 1.000000
v -0.773010 -0.634394 1.000000
v -0.831470 -0.555570 1.000000
v -0.881921 -0.471397 1.000000
v -0.923880 -0.382683 1.000000
v -0.956941 -0.290284 1.000000
v -0.980785 -0.195089 1.000000
v -0.995185 -0.098016 1.000000
v -1.000000 0.000002 1.000000
v -0.995185 0.098019 1.000000
v -0.980785 0.195092 1.000000
v -0.956940 0.290287 1.000000
v -0.923878 0.382686 1.000000
v -0.881920 0.471399 1.000000
v -0.831468 0.555573 1.000000
v -0.773008 0.634396 1.000000
v -0.707104 0.707110 1.000000
v -0.634390 0.773013 1.000000
v -0.555567 0.831472 1.000000
v -0.471393 0.881923 1.000000
v -0.382679 0.923881 1.000000
v -0.290280 0.956942 1.000000
v -0.195085 0.980786 1.000000
v -0.098011 0.995185 1.000000
v 0.000006 1.000000 1.000000
v 0.098023 0.995184 1.000000
v 0.195097 0.980784 1.000000
v 0.290291 0.956938 1.000000
v 0.382690 0.923877 1.000000
v 0.471403 0.881918 1.000000
v 0.555577 0.831465 1.000000
v 0.634399 0.773005 1.000000
v 0.000000 0.000000 -1.000000
v 0.000000 0.000000 1.000000
vn -0.000000 0.000000 -1.000000
vn 0.000000 0.000000 1.000000
vn 0.671560 0.740950 -0.000000
vn 0.671557 0.740953 -0.000000
vn 0.595695 0.803211 -0.000000
vn 0.595706 0.803203 0.000000
vn 0.514099 0.857731 -0.000000
vn 0.514110 0.857725 0.000000
vn 0.427551 0.903991 -0.000000
vn 0.427561 0.903986 0.000000
vn 0.336885 0.941546 -0.000000
vn 0.336897 0.941542 0.000000
vn 0.242977 0.970032 -0.000000
vn 0.242987 0.970030 0.000000
vn 0.146726 0.989177 -0.000000
vn 0.146737 0.989175 0.000000
vn 0.049064 0.998796 -0.000000
vn 0.049074 0.998795 0.000000
vn -0.049071 0.998795 -0.000000
vn -0.049062 0.998796 0.000000
vn -0.146733 0.989176 -0.000000
vn -0.146725 0.989177 0.000000
vn -0.242983 0.970031 -0.000000
vn -0.242975 0.970032 0.000000
vn -0.336893 0.941543 -0.000000
vn -0.336885 0.941546 0.000000
vn -0.427557 0.903988 -0.000000
vn -0.427550 0.903991 0.000000
vn -0.514105 0.857727 -0.000000
vn -0.514099 0.857731 0.000000
vn -0.595701 0.803206 -0.000000
vn -0.595696 0.803210 0.000000
vn -0.671560 0.740950 -0.000000
vn -0.671556 0.740954 0.000000
vn -0.740953 0.671557 -0.000000
vn -0.740949 0.671561 0.000000
vn -0.803208 0.595698 -0.000000
vn -0.803205 0.595703 0.000000
vn -0.857730 0.514101 -0.000000
vn -0.857727 0.514105 0.000000
vn -0.903990 0.427554 -0.000000
vn -0.903988 0.427558 0.000000
vn -0.941545 0.336889 -0.000000
vn -0.941543 0.336892 0.000000
vn -0.970032 0.242979 -0.000000
vn -0.970031 0.242982 0.000000
vn -0.989177 0.146730 -0.000000
vn -0.989176 0.146733 0.000000
vn -0.998796 0.049067 -0.000000
vn -0.998795 0.049069 0.000000
vn -0.998796 -0.049066 -0.000000
vn -0.998795 -0.049068 0.000000
vn -0.989177 -0.146729 -0.000000
vn -0.989176 -0.146731 0.000000
vn -0.970031 -0.242979 -0.000000
vn -0.970031 -0.242980 0.000000
vn -0.941544 -0.336889 -0.000000
vn -0.903989 -0.427555 0.000000
vn -0.857729 -0.514102 0.000000
vn -0.803207 -0.595700 0.000000
vn -0.803208 -0.595699 -0.000000
vn -0.740951 -0.671559 0.000000
vn -0.740952 -0.671558 -0.000000
vn -0.671559 -0.740951 0.000000
vn -0.671560 -0.740951 -0.000000
vn -0.595698 -0.803208 0.000000
vn -0.595700 -0.803207 -0.000000
vn -0.514102 -0.857729 0.000000
vn -0.514104 -0.857728 -0.000000
vn -0.427554 -0.903990 0.000000
vn -0.427556 -0.903989 -0.000000
vn -0.336888 -0.941545 0.000000
vn -0.336891 -0.941544 -0.000000
vn -0.242978 -0.970032 0.000000
vn -0.242981 -0.970031 -0.000000
vn -0.146728 -0.989177 0.000000
vn -0.146731 -0.989176 -0.000000
vn -0.049065 -0.998796 0.000000
vn -0.049068 -0.998795 -0.000000
vn 0.049071 -0.998795 0.000000
vn 0.049067 -0.998796 -0.000000
vn 0.146734 -0.989176 0.000000
vn 0.146729 -0.989177 -0.000000
vn 0.242983 -0.970030 0.000000
vn 0.242980 -0.970031 -0.000000
vn 0.336894 -0.941543 0.000000
vn 0.336889 -0.941544 -0.000000
vn 0.427559 -0.903988 0.000000
vn 0.427555 -0.903989 -0.000000
vn 0.514107 -0.857726 0.000000
vn 0.514102 -0.857729 -0.000000
vn 0.595703 -0.803205 0.000000
vn 0.595699 -0.803208 -0.000000
vn 0.671563 -0.740948 0.000000
vn 0.671559 -0.740951 -0.000000
vn 0.740955 -0.671555 0.000000
vn 0.740951 -0.671560 -0.000000
vn 0.803211 -0.595695 0.000000
vn 0.803207 -0.595700 -0.000000
vn 0.857732 -0.514098 0.000000
vn 0.857728 -0.514103 -0.000000
vn 0.903992 -0.427550 0.000000
vn 0.903989 -0.427555 -0.000000
vn 0.941546 -0.336884 0.000000
vn 0.941544 -0.336890 -0.000000
vn 0.970033 -0.242974 0.000000
vn 0.970031 -0.242981 -0.000000
vn 0.989178 -0.146724 0.000000
vn 0.989177 -0.146731 -0.000000
vn 0.998796 -0.049061 0.000000
vn 0.998795 -0.049068 -0.000000
vn 0.998795 0.049075 0.000000
vn 0.998795 0.049068 -0.000000
vn 0.989176 0.146737 0.000000
vn 0.989177 0.146730 -0.000000
vn 0.970030 0.242986 0.000000
vn 0.970031 0.242980 -0.000000
vn 0.941542 0.336895 0.000000
vn 0.941544 0.336890 -0.000000
vn 0.903987 0.427561 0.000000
vn 0.903989 0.427555 -0.000000
vn 0.857726 0.514107 0.000000
vn 0.857729 0.514103 -0.000000
vn 0.803204 0.595703 0.000000
vn 0.803207 0.595699 -0.000000
vn 0.740947 0.671563 0.000000
vn 0.740951 0.671559 -0.000000
usemtl (null)
s off
f 129//1 1//1 2//1
f 130//2 66//2 65//2
f 129//1 2//1 3//1
f 130//2 67//2 66//2
f 129//1 3//1 4//1
f 130//2 68//2 67//2
f 129//1 4//1 5//1
f 130//2 69//2 68//2
f 129//1 5//1 6//1
f 130//2 70//2 69//2
f 129//1 6//1 7//1
f 130//2 71//2 70//2
f 129//1 7//1 8//1
f 130//2 72//2 71//2
f 129//1 8//1 9//1
f 130//2 73//2 72//2
f 129//1 9//1 10//1
f 130//2 74//2 73//2
f 129//1 10//1 11//1
f 130//2 75//2 74//2
f 129//1 11//1 12//1
f 130//2 76//2 75//2
f 129//1 12//1 13//1
f 130//2 77//2 76//2
f 129//1 13//1 14//1
f 130//2 78//2 77//2
f 129//1 14//1 15//1
f 130//2 79//2 78//2
f 129//1 15//1 16//1
f 130//2 80//2 79//2
f 129//1 16//1 17//1
f 130//2 81//2 80//2
f 129//1 17//1 18//1
f 130//2 82//2 81//2
f 129//1 18//1 19//1
f 130//2 83//2 82//2
f 129//1 19//1 20//1
f 130//2 84//2 83//2
f 129//1 20//1 21//1
f 130//2 85//2 84//2
f 129//1 21//1 22//1
f 130//2 86//2 85//2
f 129//1 22//1 23//1
f 130//2 87//2 86//2
f 129//1 23//1 24//1
f 130//2 88//2 87//2
f 129//1 24//1 25//1
f 130//2 89//2 88//2
f 129//1 25//1 26//1
f 130//2 90//2 89//2
f 129//1 26//1 27//1
f 130//2 91//2 90//2
f 129//1 27//1 28//1
f 130//2 92//2 91//2
f 129//1 28//1 29//1
f 130//2 93//2 92//2
f 129//1 29//1 30//1
f 130//2 94//2 93//2
f 129//1 30//1 31//1
f 130//2 95//2 94//2
f 129//1 31//1 32//1
f 130//2 96//2 95//2
f 129//1 32//1 33//1
f 130//2 97//2 96//2
f 129//1 33//1 34//1
f 130//2 98//2 97//2
f 129//1 34//1 35//1
f 130//2 99//2 98//2
f 129//1 35//1 36//1
f 130//2 100//2 99//2
f 129//1 36//1 37//1
f 130//2 101//2 100//2
f 129//1 37//1 38//1
f 130//2 102//2 101//2
f 129//1 38//1 39//1
f 130//2 103//2 102//2
f 129//1 39//1 40//1
f 130//2 104//2 103//2
f 129//1 40//1 41//1
f 130//2 105//2 104//2
f 129//1 41//1 42//1
f 130//2 106//2 105//2
f 129//1 42//1 43//1
f 130//2 107//2 106//2
f 129//1 43//1 44//1
f 130//2 108//2 107//2
f 129//1 44//1 45//1
f 130//2 109//2 108//2
f 129//1 45//1 46//1
f 130//2 110//2 109//2
f 129//1 46//1 47//1
f 130//2 111//2 110//2
f 129//1 47//1 48//1
f 130//2 112//2 111//2
f 129//1 48//1 49//1
f 130//2 113//2 112//2
f 129//1 49//1 50//1
f 130//2 114//2 113//2
f 129//1 50//1 51//1
f 130//2 115//2 114//2
f 129//1 51//1 52//1
f 130//2 116//2 115//2
f 129//1 52//1 53//1
f 130//2 117//2 116//2
f 129//1 53//1 54//1
f 130//2 118//2 117//2
f 129//1 54//1 55//1
f 130//2 119//2 118//2
f 129//1 55//1 56//1
f 130//2 120//2 119//2
f 129//1 56//1 57//1
f 130//2 121//2 120//2
f 129//1 57//1 58//1
f 130//2 122//2 121//2
f 129//1 58//1 59//1
f 130//2 123//2 122//2
f 129//1 59//1 60//1
f 130//2 124//2 123//2
f 129//1 60//1 61//1
f 130//2 125//2 124//2
f 129//1 61//1 62//1
f 130//2 126//2 125//2
f 129//1 62//1 63//1
f 130//2 127//2 126//2
f 129//1 63//1 64//1
f 130//2 128//2 127//2
f 64//1 1//1 129//1
f 130//2 65//2 128//2
f 65//3 1//3 128//3
f 1//4 64//4 128//4
f 63//5 127//5 64//5
f 127//6 128//6 64//6
f 62//7 126//7 63//7
f 126//8 127//8 63//8
f 61//9 125//9 62//9
f 125//10 126//10 62//10
f 60//11 124//11 61//11
f 124//12 125//12 61//12
f 59//13 123//13 60//13
f 123//14 124//14 60//14
f 58//15 122//15 59//15
f 122//16 123//16 59//16
f 57//17 121//17 58//17
f 121//18 122//18 58//18
f 56//19 120//19 57//19
f 120//20 121//20 57//20
f 55//21 119//21 56//21
f 119//22 120//22 56//22
f 54//23 118//23 55//23
f 118//24 119//24 55//24
f 53//25 117//25 54//25
f 117//26 118//26 54//26
f 52//27 116//27 53//27
f 116//28 117//28 53//28
f 51//29 115//29 52//29
f 115//30 116//30 52//30
f 50//31 114//31 51//31
f 114//32 115//32 51//32
f 49//33 113//33 50//33
f 113//34 114//34 50//34
f 48//35 112//35 49//35
f 112//36 113//36 49//36
f 47//37 111//37 48//37
f 111//38 112//38 48//38
f 46//39 110//39 47//39
f 110//40 111//40 47//40
f 45//41 109//41 46//41
f 109//42 110//42 46//42
f 44//43 108//43 45//43
f 108//44 109//44 45//44
f 43//45 107//45 44//45
f 107//46 108//46 44//46
f 42//47 106//47 43//47
f 106//48 107//48 43//48
f 41//49 105//49 42//49
f 105//50 106//50 42//50
f 40//51 104//51 105//51
f 40//52 105//52 41//52
f 39//53 103//53 104//53
f 39//54 104//54 40//54
f 38//55 102//55 103//55
f 38//56 103//56 39//56
f 37//57 101//57 102//57
f 37//57 102//57 38//57
f 36//58 100//58 101//58
f 36//58 101//58 37//58
f 35//59 99//59 100//59
f 35//59 100//59 36//59
f 34//60 98//60 99//60
f 34//61 99//61 35//61
f 33//62 97//62 98//62
f 33//63 98//63 34//63
f 32//64 96//64 97//64
f 32//65 97//65 33//65
f 31//66 95//66 96//66
f 31//67 96//67 32//67
f 30//68 94//68 95//68
f 30//69 95//69 31//69
f 29//70 93//70 94//70
f 29//71 94//71 30//71
f 28//72 92//72 93//72
f 28//73 93//73 29//73
f 27//74 91//74 92//74
f 27//75 92//75 28//75
f 26//76 90//76 91//76
f 26//77 91//77 27//77
f 25//78 89//78 90//78
f 25//79 90//79 26//79
f 24//80 88//80 89//80
f 24//81 89//81 25//81
f 23//82 87//82 88//82
f 23//83 88//83 24//83
f 22//84 86//84 87//84
f 22//85 87//85 23//85
f 21//86 85//86 86//86
f 21//87 86//87 22//87
f 20//88 84//88 85//88
f 20//89 85//89 21//89
f 19//90 83//90 84//90
f 19//91 84//91 20//91
f 18//92 82//92 83//92
f 18//93 83//93 19//93
f 17//94 81//94 82//94
f 17//95 82//95 18//95
f 16//96 80//96 81//96
f 16//97 81//97 17//97
f 15//98 79//98 80//98
f 15//99 80//99 16//99
f 14//100 78//100 79//100
f 14//101 79//101 15//101
f 13//102 77//102 78//102
f 13//103 78//103 14//103
f 12//104 76//104 77//104
f 12//105 77//105 13//105
f 11//106 75//106 76//106
f 11//107 76//107 12//107
f 10//108 74//108 75//108
f 10//109 75//109 11//109
f 9//110 73//110 74//110
f 9//111 74//111 10//111
f 8//112 72//112 73//112
f 8//113 73//113 9//113
f 7//114 71//114 72//114
f 7//115 72//115 8//115
f 6//116 70//116 71//116
f 6//117 71//117 7//117
f 5//118 69//118 70//118
f 5//119 70//119 6//119
f 4//120 68//120 69//120
f 4//121 69//121 5//121
f 3//122 67//122 68//122
f 3//123 68//123 4//123
f 2//124 66//124 67//124
f 2//125 67//125 3//125
f 1//126 65//126 66//126
f 1//127 66//127 2//127
